<svg width="24" height="24" viewBox="0 0 24 24" fill="none" stroke="currentColor" stroke-width="1.8" stroke-linecap="round" stroke-linejoin="round" xmlns="http://www.w3.org/2000/svg" aria-hidden="true"><circle cx="12" cy="12" r="3"/><path d="M19.4 15a1.6 1.6 0 0 0 .3 1.8l.1.1a2 2 0 1 1-2.8 2.8l-.1-.1a1.6 1.6 0 0 0-2.7 1.1V21a2 2 0 1 1-4 0v-.1A1.6 1.6 0 0 0 7 19.4a1.6 1.6 0 0 0-1.8.3l-.1.1a2 2 0 1 1-2.8-2.8l.1-.1A1.6 1.6 0 0 0 2.6 14H2.5a2 2 0 1 1 0-4h.1A1.6 1.6 0 0 0 4.6 7a1.6 1.6 0 0 0-.3-1.8l-.1-.1a2 2 0 1 1 2.8-2.8l.1.1A1.6 1.6 0 0 0 10 2.6V2.5a2 2 0 1 1 4 0v.1A1.6 1.6 0 0 0 17 4.6a1.6 1.6 0 0 0 1.8-.3l.1-.1a2 2 0 1 1 2.8 2.8l-.1.1A1.6 1.6 0 0 0 21.4 10h.1a2 2 0 1 1 0 4h-.1a1.6 1.6 0 0 0-1.5 1z"/></svg>